<svg display='none' xmlns="http://www.w3.org/2000/svg">

    <!-- TELEGRAM ICON -->
    <symbol id='telegram-icon' viewBox="0 0 24 24">
        <g>
            <path d="m12 24c6.629 0 12-5.371 12-12s-5.371-12-12-12-12 5.371-12 12 5.371 12 12 12zm-6.509-12.26 11.57-4.461c.537-.194 1.006.131.832.943l.001-.001-1.97 9.281c-.146.658-.537.818-1.084.508l-3-2.211-1.447 1.394c-.16.16-.295.295-.605.295l.213-3.053 5.56-5.023c.242-.213-.054-.333-.373-.121l-6.871 4.326-2.962-.924c-.643-.204-.657-.643.136-.953z" />
        </g>
    </symbol>

    <!-- MENU ICON -->
    <symbol id='menu-icon' viewBox="0 0 22 22" width="30" height="30">
        <g>
            <path d="M10.9999 2.99992C12.4666 2.99992 13.6666 4.19992 13.6666 5.66658C13.6666 7.13325 12.4666 8.33325 10.9999 8.33325C9.53325 8.33325 8.33325 7.13325 8.33325 5.66658C8.33325 4.19992 9.53325 2.99992 10.9999 2.99992ZM10.9999 14.9999C14.5999 14.9999 18.7333 16.7199 18.9999 17.6666V18.9999H2.99992V17.6799C3.26659 16.7199 7.39992 14.9999 10.9999 14.9999ZM10.9999 0.333252C8.05325 0.333252 5.66658 2.71992 5.66658 5.66658C5.66658 8.61325 8.05325 10.9999 10.9999 10.9999C13.9466 10.9999 16.3333 8.61325 16.3333 5.66658C16.3333 2.71992 13.9466 0.333252 10.9999 0.333252ZM10.9999 12.3333C7.43992 12.3333 0.333252 14.1199 0.333252 17.6666V21.6666H21.6666V17.6666C21.6666 14.1199 14.5599 12.3333 10.9999 12.3333Z" fill="#282828" />
        </g>
    </symbol>
</svg>